<svg width="1024" height="1024" viewBox="0 0 1024 1024" fill="none" xmlns="http://www.w3.org/2000/svg">
<path d="M254.655 558.683L280.255 365.883L57.8555 211.483L261.055 280.283L309.055 206.683L484.255 97.8833L870.656 310.683L890.656 635.483L718.656 874.683L582.656 895.483L653.055 766.683V642.683L601.855 545.883L549.855 511.483L469.855 593.883V681.083L407.455 739.483L328.255 749.083L293.055 769.083L235.455 750.683L211.455 664.283L254.655 603.483V558.683Z" fill="white"/>
<path d="M609.857 209.883C567.457 201.083 521.057 203.483 521.057 203.483C521.057 203.483 505.857 273.883 411.457 292.283C412.257 292.283 536.257 334.683 609.857 209.883Z" fill="#94A6C3"/>
<path d="M648.256 848.283C699.456 808.283 737.856 753.083 755.456 690.683C756.256 688.283 763.456 684.283 768.256 681.083C776.256 676.283 784.256 672.283 785.856 665.883C789.056 647.483 790.656 628.283 790.656 609.083C790.656 601.883 783.456 594.683 776.256 587.483C770.656 582.683 765.056 577.083 765.056 573.083C757.056 500.283 723.456 432.283 669.856 382.683L664.256 388.283C716.256 437.083 749.856 503.483 757.056 573.883C757.856 580.283 764.256 586.683 770.656 593.083C776.256 597.883 782.656 605.083 782.656 608.283C782.656 626.683 781.056 645.083 777.856 663.483C777.056 666.683 769.856 669.883 764.256 673.083C756.256 677.083 749.056 681.083 747.456 687.483C728.256 755.483 684.256 814.683 625.856 853.083C636.256 830.683 669.056 757.883 686.656 721.083L683.456 602.683L581.856 504.283L524.256 512.283L461.056 614.683C461.056 614.683 490.656 652.283 449.056 696.283C408.256 739.483 376.256 749.083 376.256 749.083L346.656 733.083C355.456 721.883 373.056 705.083 386.656 693.883C409.856 674.683 433.056 673.083 433.056 652.283C433.856 609.083 387.456 621.083 387.456 621.083L370.656 637.083L363.456 696.283L328.256 740.283L324.256 739.483L266.656 726.683C266.656 726.683 301.856 708.283 307.456 687.483C313.056 667.483 296.256 601.083 295.456 597.083C296.256 597.883 312.256 611.483 319.456 633.883C332.256 598.683 349.056 565.083 353.856 561.883C358.656 558.683 423.456 524.283 423.456 524.283L401.856 581.083L417.856 572.283L456.256 477.883C456.256 477.883 493.856 459.483 521.856 459.483C572.256 458.683 646.656 397.083 613.056 286.683C622.656 290.683 789.056 373.883 817.856 537.083C839.456 662.683 768.256 780.283 648.256 848.283Z" fill="#94A6C3"/>
<path d="M457.857 227.484C476.257 205.884 469.057 173.884 469.057 173.884L415.457 253.084C414.657 253.084 434.657 253.884 457.857 227.484Z" fill="#1B314F"/>
<path d="M277.856 660.285L284.256 628.285C284.256 628.285 257.856 674.685 255.456 681.085C253.056 688.285 257.056 701.085 267.456 700.285C277.856 699.485 290.656 684.285 290.656 673.085C290.656 658.685 277.856 660.285 277.856 660.285Z" fill="#1B314F"/>
<path d="M753.056 151.485C753.056 151.485 793.056 153.085 834.656 157.885C741.056 84.2845 652.256 62.6845 580.256 62.6845C481.056 62.6845 413.856 103.485 409.856 105.885L441.056 56.2845C441.056 56.2845 316.256 44.2845 272.256 176.285C261.056 148.285 250.656 107.485 250.656 107.485C250.656 107.485 185.856 164.285 216.256 258.685C141.856 231.485 35.456 193.885 31.456 193.085C25.856 192.285 24.256 194.685 24.256 194.685C24.256 194.685 22.656 197.085 27.456 201.085C36.256 208.285 204.256 332.285 241.056 356.285C233.056 385.085 233.056 398.685 241.056 412.285C252.256 430.685 253.056 440.285 251.456 453.885C249.856 467.485 235.456 585.084 232.256 599.484C229.056 613.884 195.456 665.084 197.056 680.284C198.656 695.484 219.456 760.284 237.856 767.484C251.456 772.284 285.056 782.685 307.456 782.685C315.456 782.685 322.656 781.084 325.856 777.884C339.456 765.884 343.456 763.484 353.056 763.484C353.856 763.484 354.656 763.484 355.456 763.484C359.456 763.484 364.256 764.284 369.856 764.284C382.656 764.284 399.456 761.885 411.456 750.685C429.056 733.085 459.456 709.084 469.056 697.884C481.056 682.684 487.456 661.884 484.256 641.084C481.856 621.884 492.256 605.084 504.256 588.284C519.456 568.284 547.456 532.285 547.456 532.285C602.656 573.885 637.056 637.084 637.056 707.484C637.056 832.285 528.256 933.084 393.856 933.084C373.056 933.084 353.056 930.684 333.056 925.884C394.656 947.484 446.656 954.685 489.056 954.685C579.456 954.685 627.456 921.884 627.456 921.884C627.456 921.884 610.656 943.484 583.456 968.284C584.256 968.284 584.256 968.284 584.256 968.284C733.856 947.484 806.656 824.284 806.656 824.284C806.656 824.284 801.056 864.284 793.856 891.484C993.056 741.884 959.456 554.685 958.656 548.285C960.256 550.685 980.256 574.684 990.656 587.484C1022.66 257.884 753.056 151.485 753.056 151.485ZM446.656 677.884C443.456 681.884 429.856 693.885 420.256 702.685C410.656 711.485 400.256 720.284 392.256 728.284C389.056 731.484 382.656 733.084 373.056 733.084C369.856 733.084 366.656 733.084 364.256 733.084C362.656 733.084 361.056 733.084 359.456 733.084C357.856 733.084 357.056 733.084 356.256 733.084C353.856 733.084 351.456 733.084 349.056 733.084C361.056 717.084 396.256 680.284 408.256 672.284C422.656 662.684 429.856 653.084 421.056 636.284C412.256 619.484 389.056 623.484 389.056 623.484C389.056 623.484 402.656 617.884 414.656 617.884C399.456 613.884 380.256 617.885 371.456 626.685C361.856 635.485 363.456 666.685 359.456 686.685C355.456 707.485 341.856 717.884 321.056 737.084C309.856 747.484 301.856 750.685 295.456 750.685C281.856 748.285 265.856 744.284 254.656 740.284C246.656 729.884 234.656 695.484 231.456 681.084C233.856 673.084 243.456 656.285 248.256 646.685C257.856 628.285 263.456 617.884 265.056 608.284C268.256 594.684 278.656 510.685 282.656 475.485C293.056 489.085 307.456 511.485 304.256 525.885C327.456 493.085 310.656 461.085 302.656 448.285C295.456 435.485 285.856 409.885 293.856 382.685C301.856 355.485 330.656 280.285 330.656 280.285C330.656 280.285 340.256 297.085 353.856 293.885C367.456 290.685 477.056 125.885 477.056 125.885C477.056 125.885 506.656 190.685 475.456 237.885C443.456 285.085 412.256 293.885 412.256 293.885C412.256 293.885 456.256 301.885 497.056 272.285C513.856 311.485 529.856 352.285 530.656 357.885C528.256 363.485 496.256 440.285 493.056 445.085C491.456 446.685 480.256 449.885 472.256 451.485C458.656 455.485 450.656 457.885 447.456 460.285C441.856 465.085 416.256 535.484 404.256 569.884C389.856 573.884 375.456 581.884 365.056 597.884C370.656 593.884 388.256 591.484 401.056 589.884C412.256 589.084 446.656 607.484 455.456 641.884C455.456 642.684 455.456 642.684 455.456 643.484C457.056 656.284 453.056 668.284 446.656 677.884ZM371.456 687.484C378.656 677.084 377.856 659.484 378.656 653.884C379.456 648.284 381.056 637.884 387.456 636.284C393.856 634.684 409.056 637.084 409.056 648.284C409.056 658.684 397.856 661.084 389.856 668.284C384.256 673.884 373.056 685.884 371.456 687.484ZM690.656 534.685C698.656 493.885 699.456 458.685 697.056 429.885C728.256 471.485 747.456 521.884 753.056 573.884C753.856 580.284 760.256 586.684 766.656 593.084C772.256 597.884 778.656 604.284 778.656 608.284C778.656 626.684 777.056 645.084 773.856 663.484C773.056 665.884 765.856 669.884 760.256 673.084C752.256 677.084 745.056 681.084 743.456 687.484C725.856 749.084 688.256 803.484 637.856 841.884C712.256 764.284 748.256 636.285 690.656 534.685ZM640.256 849.084C692.256 809.084 732.256 753.084 749.856 689.884C750.656 687.484 757.856 683.484 762.656 680.284C770.656 676.284 778.656 671.484 780.256 665.084C783.456 646.684 785.056 627.484 785.056 608.284C785.056 601.084 777.856 593.885 770.656 586.685C766.656 581.885 760.256 576.284 760.256 572.284C753.856 513.884 730.656 458.685 694.656 413.085C678.656 317.085 614.656 287.485 613.056 286.685C614.656 289.085 656.256 349.085 627.456 419.485C597.856 490.685 521.856 479.485 515.456 480.285C509.056 480.285 484.256 512.284 453.056 571.484C449.056 569.884 432.256 565.884 413.056 569.084C427.456 529.084 449.056 472.285 453.056 467.485C454.656 465.885 466.656 462.685 474.656 460.285C489.856 456.285 497.056 453.885 499.456 450.685C501.056 448.285 509.056 429.885 517.056 410.685C524.256 410.685 542.656 409.085 544.256 408.285C545.856 406.685 561.056 367.485 561.056 362.685C561.056 358.685 529.856 281.085 517.856 251.485C523.456 245.085 529.056 237.085 534.656 228.285C698.656 245.885 826.656 385.085 826.656 553.885C826.656 683.485 750.656 796.284 640.256 849.084Z" fill="#1B314F"/>
<path d="M427.456 417.084C442.656 399.484 434.656 366.684 406.656 361.084C413.856 344.284 424.256 310.684 424.256 310.684C424.256 310.684 342.656 438.684 335.456 441.084C328.256 443.484 321.056 415.484 321.056 415.484C305.856 473.884 346.656 481.884 351.456 463.484C373.856 457.884 412.256 433.884 427.456 417.084Z" fill="#1B314F"/>
<path d="M357.855 448.286L399.455 377.086C399.455 377.086 423.455 389.086 411.455 408.286C396.255 430.686 357.855 448.286 357.855 448.286Z" fill="#FFD923"/>
<path d="M872.256 777.885C860.256 793.885 846.656 810.685 830.656 826.685C933.856 628.285 835.456 446.685 831.456 439.485C838.656 446.685 845.856 454.685 852.256 461.885C931.456 549.885 941.056 681.885 872.256 777.885Z" fill="#D82122"/>
<path d="M968.256 522.684C932.256 425.884 881.056 343.484 768.256 269.084C659.456 197.084 542.656 202.684 536.256 203.484C535.456 203.484 534.656 203.484 534.656 203.484C538.656 201.884 542.656 201.084 546.656 200.284C571.456 192.284 603.456 185.884 635.456 181.884C720.256 169.884 805.856 198.684 864.256 260.284C865.056 261.084 865.056 261.084 865.856 261.884C932.256 332.284 966.656 420.284 968.256 522.684Z" fill="#D82122"/>
<path d="M742.656 126.686C623.456 104.286 546.656 115.486 491.456 136.286C489.856 129.886 484.256 117.086 479.456 106.686C462.656 126.686 445.056 150.686 433.856 165.886C403.456 186.686 390.656 206.686 390.656 206.686C408.256 146.686 459.456 101.886 521.856 90.6863C539.456 87.4863 558.656 85.8863 579.456 85.8863C634.656 86.6863 689.856 100.286 742.656 126.686Z" fill="#D82122"/>
<path d="M301.857 280.286C208.257 277.086 239.457 168.286 241.057 161.886C241.057 162.686 247.457 247.486 301.857 280.286Z" fill="#D82122"/>
<path d="M393.856 84.2852C321.856 127.485 336.256 230.685 336.256 230.685C267.456 125.885 388.256 86.6852 393.856 84.2852Z" fill="#D82122"/>
<path d="M275.457 309.084C280.257 313.084 285.057 320.284 279.457 330.684C276.257 336.284 271.457 335.484 264.257 332.284C254.657 327.484 197.057 293.884 145.057 259.484C204.257 280.284 264.257 302.684 273.857 307.484C273.857 307.484 274.657 308.284 275.457 309.084Z" fill="white"/>
</svg>
