<svg width="142" height="166" viewBox="0 0 142 166" fill="none" xmlns="http://www.w3.org/2000/svg">
<path d="M78.8018 78.2788C88.712 78.2788 96.7457 70.6167 96.7457 61.165C96.7457 51.7133 88.712 44.0511 78.8018 44.0511C68.8917 44.0511 60.8579 51.7133 60.8579 61.165C60.8579 70.6167 68.8917 78.2788 78.8018 78.2788Z" fill="#05A69E"/>
<path d="M29.6346 94.7256V0.0136719H0V124.581C0 152.595 15.6434 165.775 47.3067 165.294H91.8527V140.648H47.453C34.1729 140.774 29.6346 136.088 29.6346 123.493V94.7256Z" fill="#1B283F"/>
<path d="M112.366 73.6755V165.291H142V40.7449C142 12.7519 126.378 -0.428728 94.6937 0.0106245H50.1895V24.6772H94.5682C107.848 24.5516 112.366 29.2381 112.366 41.8119V73.6755Z" fill="#05A69E"/>
</svg>
