<svg width="347" height="123" viewBox="0 0 347 123" fill="none" xmlns="http://www.w3.org/2000/svg">
<path d="M262.75 41.3418L253.794 22.9205L272.656 10.8853L262.75 41.3418Z" stroke="#75C4FD" stroke-width="3" stroke-miterlimit="10" stroke-linejoin="round"/>
<path d="M27.3883 44.9646L35.9759 29.8591L48.8573 53.7761L27.3883 44.9646Z" stroke="url(#paint0_linear)" stroke-width="3" stroke-miterlimit="10" stroke-linecap="round" stroke-linejoin="round"/>
<path d="M174.665 11.8677L172.519 35.2013" stroke="#FFB0EB" stroke-width="3" stroke-miterlimit="10" stroke-linecap="round"/>
<path d="M224.197 19.0211C225.011 19.0211 225.67 18.3613 225.67 17.5474C225.67 16.7335 225.011 16.0737 224.197 16.0737C223.384 16.0737 222.725 16.7335 222.725 17.5474C222.725 18.3613 223.384 19.0211 224.197 19.0211Z" fill="black"/>
<path d="M148.136 49.9076C148.712 49.9076 149.179 49.4402 149.179 48.8637C149.179 48.2872 148.712 47.8198 148.136 47.8198C147.56 47.8198 147.093 48.2872 147.093 48.8637C147.093 49.4402 147.56 49.9076 148.136 49.9076Z" fill="black"/>
<path d="M309.153 126.233C310.17 126.233 310.993 125.409 310.993 124.391C310.993 123.374 310.17 122.549 309.153 122.549C308.137 122.549 307.313 123.374 307.313 124.391C307.313 125.409 308.137 126.233 309.153 126.233Z" fill="black"/>
<path d="M214.383 32.5915C215.399 32.5915 216.223 31.7667 216.223 30.7494C216.223 29.732 215.399 28.9072 214.383 28.9072C213.367 28.9072 212.543 29.732 212.543 30.7494C212.543 31.7667 213.367 32.5915 214.383 32.5915Z" fill="black"/>
<path d="M228.491 47.6357C229.508 47.6357 230.331 46.8109 230.331 45.7935C230.331 44.7762 229.508 43.9514 228.491 43.9514C227.475 43.9514 226.651 44.7762 226.651 45.7935C226.651 46.8109 227.475 47.6357 228.491 47.6357Z" fill="black"/>
<path d="M101.518 52.0875C103.804 52.0875 105.658 48.9947 105.658 45.1795C105.658 41.3643 103.804 38.2715 101.518 38.2715C99.2309 38.2715 97.3771 41.3643 97.3771 45.1795C97.3771 48.9947 99.2309 52.0875 101.518 52.0875Z" fill="#83FEB9"/>
<path d="M118.693 44.4119C119.794 44.4119 120.686 43.5185 120.686 42.4163C120.686 41.3141 119.794 40.4207 118.693 40.4207C117.592 40.4207 116.699 41.3141 116.699 42.4163C116.699 43.5185 117.592 44.4119 118.693 44.4119Z" fill="black"/>
<path d="M32.5102 108.887C33.6112 108.887 34.5037 107.993 34.5037 106.891C34.5037 105.789 33.6112 104.895 32.5102 104.895C31.4091 104.895 30.5166 105.789 30.5166 106.891C30.5166 107.993 31.4091 108.887 32.5102 108.887Z" fill="black"/>
<path d="M132.341 89.6055L54.9299 23.7186L111.7 31.1178L128.446 8.39819L132.341 89.6055Z" fill="url(#paint1_linear)"/>
<path d="M99.9841 26.052C107.376 25.4994 115.564 3.82364 102.744 0.384996C89.9243 -3.05365 73.6386 17.6396 87.5627 18.8984C99.3093 19.973 86.5506 27.0345 99.9841 26.052Z" fill="#AFECBD"/>
<path d="M15.7951 86.1668C20.1991 86.1668 23.7692 82.5929 23.7692 78.1842C23.7692 73.7756 20.1991 70.2017 15.7951 70.2017C11.391 70.2017 7.82086 73.7756 7.82086 78.1842C7.82086 82.5929 11.391 86.1668 15.7951 86.1668Z" stroke="#FF45D8" stroke-width="3" stroke-miterlimit="10"/>
<path d="M319.734 25.0696C319.734 29.0916 307.466 29.0916 307.466 33.0829C307.466 37.1048 319.734 37.1048 319.734 41.0961C319.734 45.1181 307.466 45.1181 307.466 49.1094C307.466 53.1314 319.734 53.1314 319.734 57.1227C319.734 61.1447 307.466 61.1447 307.466 65.1359C307.466 69.1579 319.734 69.1579 319.734 73.1492C319.734 77.1712 307.466 77.1712 307.466 81.1625C307.466 85.1538 319.734 85.1845 319.734 89.1758" stroke="#FFD33D" stroke-width="3" stroke-miterlimit="10"/>
<path d="M51.8323 40.5742L99.9841 102.593L69.3142 95.5312L51.8323 40.5742Z" fill="url(#paint2_linear)"/>
<path d="M142.002 51.934L99.9841 102.593L51.8323 40.5742L142.002 51.934Z" fill="url(#paint3_linear)"/>
<path d="M168.01 26.3899L124.673 152.023L142.002 51.9341L168.01 26.3899Z" fill="url(#paint4_linear)"/>
<path d="M180.615 55.2807L124.673 152.023L168.01 26.3899L180.615 55.2807Z" fill="url(#paint5_linear)"/>
<path d="M204.201 109.04L124.612 152.023L204.201 174.129V109.04Z" fill="url(#paint6_linear)"/>
<path d="M191.933 32.8374L231.558 89.3909L205.765 70.3248L191.933 32.8374Z" fill="url(#paint7_linear)"/>
<path d="M231.558 89.3909L236.711 60.9913L191.933 32.8374L231.558 89.3909Z" fill="url(#paint8_linear)"/>
<path d="M315.257 97.6495L231.558 89.3906L281.796 81.1931L315.257 97.6495Z" fill="#333333"/>
<path d="M294.738 28.9072L231.558 89.3906L236.711 60.991L294.738 28.9072Z" fill="url(#paint9_linear)"/>
<path d="M315.257 97.6495L204.262 109.04L231.558 89.3906L315.257 97.6495Z" fill="url(#paint10_linear)"/>
<path d="M266.062 113.492L204.262 109.04L315.257 97.6497L266.062 113.492Z" fill="#333333"/>
<path d="M313.754 158.471L204.262 109.04L266.062 113.492L313.754 158.471Z" fill="url(#paint11_linear)"/>
<path d="M247.445 149.198L204.262 109.04L313.754 158.471L247.445 149.198Z" fill="url(#paint12_linear)"/>
<path d="M244.286 190.339L204.201 109.04L247.353 149.198L244.286 190.339Z" fill="url(#paint13_linear)"/>
<path d="M37.4787 152.791L76.0615 164.058L15.9484 117.022L37.4787 152.791Z" fill="url(#paint14_linear)"/>
<path d="M15.9484 117.022L76.0615 164.058L83.729 131.145L15.9484 117.022Z" fill="url(#paint15_linear)"/>
<path d="M44.1034 112.97L99.9841 102.593L83.729 131.146L44.1034 112.97Z" fill="url(#paint16_linear)"/>
<path d="M124.673 152.023L99.9841 102.592L142.002 51.9338L124.673 152.023Z" fill="url(#paint17_linear)"/>
<path d="M99.9841 102.593L124.827 152.023L83.729 131.146L99.9841 102.593Z" fill="#333333"/>
<path d="M180.615 55.2805L204.262 109.04L124.827 152.023L180.615 55.2805Z" fill="url(#paint18_linear)"/>
<path d="M205.765 70.3246L204.262 109.04L180.615 55.2805L205.765 70.3246Z" fill="url(#paint19_linear)"/>
<path d="M231.558 89.3908L204.262 109.04L205.765 70.3247L231.558 89.3908Z" fill="url(#paint20_linear)"/>
<path d="M294.738 28.9072L281.857 81.101L231.558 89.3906L294.738 28.9072Z" fill="url(#paint21_linear)"/>
<path d="M99.9841 102.593L44.1647 113.031L69.3141 95.531L99.9841 102.593Z" fill="url(#paint22_linear)"/>
<path d="M204.201 174.129V109.04L244.286 190.339L204.201 174.129Z" fill="url(#paint23_linear)"/>
<path d="M309.307 114.72C301.179 101.457 336.603 17.701 285.691 59.149C215.211 116.531 145.713 115.058 130.93 114.444C116.147 113.83 83.5143 110.79 59.377 128.935C35.2398 147.08 81.2447 148.339 74.7427 157.519C68.2407 166.699 57.2915 177.107 42.6926 180.545C28.063 183.984 69.7742 198.69 57.0461 214.901C44.3181 231.112 3.15898 253.494 38.5215 262.183C73.8839 270.871 132.709 254.323 137.003 266.389C141.266 278.485 247.905 225.094 261.155 196.388C274.404 167.681 343.841 189.51 346.755 169.063C349.668 148.615 323.691 138.176 309.307 114.72Z" fill="url(#paint24_linear)"/>
<path d="M161.171 38.2715L143.689 25.0696L176.506 99.3689L161.171 38.2715Z" stroke="black" stroke-miterlimit="10"/>
<path d="M124.827 94.61L176.352 99.2153L143.535 24.916L124.827 94.61Z" stroke="black" stroke-miterlimit="10"/>
<path d="M32.5101 64.2149L124.827 94.61L133.721 61.4517L32.5101 64.2149Z" stroke="black" stroke-miterlimit="10"/>
<path d="M124.827 94.6099L91.0898 168.295L176.352 99.2152L124.827 94.6099Z" stroke="black" stroke-miterlimit="10"/>
<path d="M30.3633 125.312L124.827 94.61L32.5102 64.2148L66.2471 94.917L30.3633 125.312Z" stroke="black" stroke-miterlimit="10"/>
<path d="M176.352 100.904C177.284 100.904 178.039 100.148 178.039 99.2152C178.039 98.2826 177.284 97.5266 176.352 97.5266C175.421 97.5266 174.665 98.2826 174.665 99.2152C174.665 100.148 175.421 100.904 176.352 100.904Z" fill="black"/>
<path d="M161.324 39.8064C162.256 39.8064 163.011 39.0504 163.011 38.1178C163.011 37.1852 162.256 36.4292 161.324 36.4292C160.392 36.4292 159.637 37.1852 159.637 38.1178C159.637 39.0504 160.392 39.8064 161.324 39.8064Z" fill="black"/>
<path d="M143.535 26.6045C144.467 26.6045 145.222 25.8485 145.222 24.9159C145.222 23.9833 144.467 23.2273 143.535 23.2273C142.604 23.2273 141.849 23.9833 141.849 24.9159C141.849 25.8485 142.604 26.6045 143.535 26.6045Z" fill="black"/>
<path d="M124.827 96.2986C125.758 96.2986 126.514 95.5426 126.514 94.61C126.514 93.6774 125.758 92.9214 124.827 92.9214C123.895 92.9214 123.14 93.6774 123.14 94.61C123.14 95.5426 123.895 96.2986 124.827 96.2986Z" fill="black"/>
<path d="M133.721 63.1402C134.653 63.1402 135.408 62.3842 135.408 61.4516C135.408 60.519 134.653 59.7629 133.721 59.7629C132.789 59.7629 132.034 60.519 132.034 61.4516C132.034 62.3842 132.789 63.1402 133.721 63.1402Z" fill="black"/>
<path d="M32.5102 66.2105C33.4418 66.2105 34.197 65.4545 34.197 64.5219C34.197 63.5893 33.4418 62.8333 32.5102 62.8333C31.5785 62.8333 30.8233 63.5893 30.8233 64.5219C30.8233 65.4545 31.5785 66.2105 32.5102 66.2105Z" fill="black"/>
<path d="M66.2472 96.2986C67.1788 96.2986 67.934 95.5426 67.934 94.61C67.934 93.6774 67.1788 92.9214 66.2472 92.9214C65.3155 92.9214 64.5603 93.6774 64.5603 94.61C64.5603 95.5426 65.3155 96.2986 66.2472 96.2986Z" fill="black"/>
<path d="M176.628 150.519C176.628 150.519 186.167 112.694 211.715 125.374C237.263 138.054 251.279 140.418 263.731 132.558C276.183 124.698 279.526 106.707 299.707 101.61C313.079 98.233 333.904 114.014 337.523 94.7329" stroke="#83FEB9" stroke-width="6" stroke-miterlimit="10"/>
<path d="M228.798 45.1794L161.324 38.1179L176.352 99.2153L228.798 45.1794Z" stroke="black" stroke-miterlimit="10"/>
<path d="M35.3625 77.6626L64.5603 104.281" stroke="#FFB0EB" stroke-width="3" stroke-miterlimit="10" stroke-linecap="round"/>
<path d="M197.024 10.8851C192.73 1.09111 174.543 42.9075 193.037 47.8813C211.531 52.855 238.612 38.6399 218.554 36.8285C201.594 35.2934 203.863 26.5432 197.024 10.8851Z" fill="#FBC49D"/>
<defs>
<linearGradient id="paint0_linear" x1="28.6031" y1="36.7424" x2="53.5516" y2="45.8547" gradientUnits="userSpaceOnUse">
<stop stop-color="#FFE566"/>
<stop offset="1" stop-color="#FFB0EB"/>
</linearGradient>
<linearGradient id="paint1_linear" x1="52.9541" y1="54.0541" x2="134.286" y2="59.3138" gradientUnits="userSpaceOnUse">
<stop stop-color="#75C4FD"/>
<stop offset="0.0902181" stop-color="#99BFF8"/>
<stop offset="0.1886" stop-color="#B8BAF4"/>
<stop offset="0.2962" stop-color="#D2B6F1"/>
<stop offset="0.4147" stop-color="#E6B4EE"/>
<stop offset="0.5496" stop-color="#F4B2EC"/>
<stop offset="0.715" stop-color="#FDB0EB"/>
<stop offset="1" stop-color="#FFB0EB"/>
</linearGradient>
<linearGradient id="paint2_linear" x1="51.8323" y1="71.5876" x2="99.9841" y2="71.5876" gradientUnits="userSpaceOnUse">
<stop stop-color="#848484"/>
<stop offset="1" stop-color="#363636"/>
</linearGradient>
<linearGradient id="paint3_linear" x1="51.8323" y1="71.5876" x2="142.002" y2="71.5876" gradientUnits="userSpaceOnUse">
<stop stop-color="white"/>
<stop offset="0.674" stop-color="#6A6869"/>
</linearGradient>
<linearGradient id="paint4_linear" x1="124.673" y1="89.2159" x2="168.02" y2="89.2159" gradientUnits="userSpaceOnUse">
<stop stop-color="white"/>
<stop offset="0.674" stop-color="#6A6869"/>
</linearGradient>
<linearGradient id="paint5_linear" x1="124.673" y1="89.2159" x2="180.608" y2="89.2159" gradientUnits="userSpaceOnUse">
<stop stop-color="white"/>
<stop offset="1" stop-color="#9C9A9B"/>
</linearGradient>
<linearGradient id="paint6_linear" x1="124.625" y1="141.589" x2="204.19" y2="141.589" gradientUnits="userSpaceOnUse">
<stop offset="0.00122196" stop-color="#E6E6E6"/>
<stop offset="1" stop-color="#373737"/>
</linearGradient>
<linearGradient id="paint7_linear" x1="191.943" y1="61.1234" x2="231.558" y2="61.1234" gradientUnits="userSpaceOnUse">
<stop stop-color="#7E7C7D"/>
<stop offset="1" stop-color="#6A6869"/>
</linearGradient>
<linearGradient id="paint8_linear" x1="191.943" y1="61.1234" x2="236.721" y2="61.1234" gradientUnits="userSpaceOnUse">
<stop stop-color="white"/>
<stop offset="1" stop-color="#9C9A9B"/>
</linearGradient>
<linearGradient id="paint9_linear" x1="231.558" y1="59.1531" x2="294.738" y2="59.1531" gradientUnits="userSpaceOnUse">
<stop stop-color="white"/>
<stop offset="1" stop-color="#9C9A9B"/>
</linearGradient>
<linearGradient id="paint10_linear" x1="204.262" y1="99.2195" x2="315.249" y2="99.2195" gradientUnits="userSpaceOnUse">
<stop stop-color="white"/>
<stop offset="0.674" stop-color="#6A6869"/>
</linearGradient>
<linearGradient id="paint11_linear" x1="204.262" y1="133.759" x2="313.754" y2="133.759" gradientUnits="userSpaceOnUse">
<stop stop-color="white"/>
<stop offset="0.674" stop-color="#6A6869"/>
</linearGradient>
<linearGradient id="paint12_linear" x1="204.262" y1="133.759" x2="313.754" y2="133.759" gradientUnits="userSpaceOnUse">
<stop stop-color="white"/>
<stop offset="0.674" stop-color="#6A6869"/>
</linearGradient>
<linearGradient id="paint13_linear" x1="204.19" y1="149.699" x2="247.361" y2="149.699" gradientUnits="userSpaceOnUse">
<stop stop-color="white"/>
<stop offset="0.674" stop-color="#6A6869"/>
</linearGradient>
<linearGradient id="paint14_linear" x1="15.9484" y1="140.536" x2="76.0607" y2="140.536" gradientUnits="userSpaceOnUse">
<stop stop-color="#848484"/>
<stop offset="1" stop-color="#363636"/>
</linearGradient>
<linearGradient id="paint15_linear" x1="15.9484" y1="140.536" x2="83.729" y2="140.536" gradientUnits="userSpaceOnUse">
<stop stop-color="white"/>
<stop offset="0.674" stop-color="#6A6869"/>
</linearGradient>
<linearGradient id="paint16_linear" x1="44.0881" y1="116.873" x2="99.9841" y2="116.873" gradientUnits="userSpaceOnUse">
<stop stop-color="#848484"/>
<stop offset="1" stop-color="#363636"/>
</linearGradient>
<linearGradient id="paint17_linear" x1="99.9841" y1="101.983" x2="142.002" y2="101.983" gradientUnits="userSpaceOnUse">
<stop stop-color="white"/>
<stop offset="0.674" stop-color="#6A6869"/>
</linearGradient>
<linearGradient id="paint18_linear" x1="124.827" y1="103.652" x2="204.262" y2="103.652" gradientUnits="userSpaceOnUse">
<stop stop-color="white"/>
<stop offset="1" stop-color="#9C9A9B"/>
</linearGradient>
<linearGradient id="paint19_linear" x1="180.608" y1="82.1606" x2="205.757" y2="82.1606" gradientUnits="userSpaceOnUse">
<stop stop-color="white"/>
<stop offset="1" stop-color="#9C9A9B"/>
</linearGradient>
<linearGradient id="paint20_linear" x1="204.262" y1="89.6828" x2="231.558" y2="89.6828" gradientUnits="userSpaceOnUse">
<stop stop-color="white"/>
<stop offset="1" stop-color="#9C9A9B"/>
</linearGradient>
<linearGradient id="paint21_linear" x1="231.558" y1="59.1531" x2="294.738" y2="59.1531" gradientUnits="userSpaceOnUse">
<stop stop-color="white"/>
<stop offset="0.674" stop-color="#6A6869"/>
</linearGradient>
<linearGradient id="paint22_linear" x1="44.1647" y1="104.285" x2="99.9841" y2="104.285" gradientUnits="userSpaceOnUse">
<stop stop-color="white"/>
<stop offset="0.674" stop-color="#6A6869"/>
</linearGradient>
<linearGradient id="paint23_linear" x1="204.19" y1="149.699" x2="244.295" y2="149.699" gradientUnits="userSpaceOnUse">
<stop stop-color="white"/>
<stop offset="1" stop-color="#9C9A9B"/>
</linearGradient>
<linearGradient id="paint24_linear" x1="351.503" y1="141.761" x2="51.7714" y2="90.8988" gradientUnits="userSpaceOnUse">
<stop stop-color="#75C4FD"/>
<stop offset="0.0902181" stop-color="#99BFF8"/>
<stop offset="0.1886" stop-color="#B8BAF4"/>
<stop offset="0.2962" stop-color="#D2B6F1"/>
<stop offset="0.4147" stop-color="#E6B4EE"/>
<stop offset="0.5496" stop-color="#F4B2EC"/>
<stop offset="0.715" stop-color="#FDB0EB"/>
<stop offset="1" stop-color="#FFB0EB"/>
</linearGradient>
</defs>
</svg>
