<svg width="375" height="169" viewBox="0 0 375 169" fill="none" xmlns="http://www.w3.org/2000/svg">
<rect width="375" height="169" fill="#190066"/>
<path d="M230.934 126.174L209.403 119.793L193.165 129.454L181.835 129.45L165.588 119.793L144.066 126.174L137.519 104.177L144.066 79.764L137.519 59.1231L144.066 33.5413L177.696 53.5394H197.304L230.934 33.5413L237.481 59.1231L230.934 79.764L237.481 104.177L230.934 126.174Z" fill="#FF5C16"/>
<path d="M144.07 33.5413L177.701 53.5534L176.363 67.2875L144.07 33.5413Z" fill="#FF5C16"/>
<path d="M165.593 104.187L180.39 115.406L165.593 119.793V104.187Z" fill="#FF5C16"/>
<path d="M179.207 85.6386L176.363 67.2969L158.159 79.7687L158.149 79.764V79.7734L158.206 92.6112L165.588 85.6386H165.593H179.207Z" fill="#FF5C16"/>
<path d="M230.934 33.5413L197.304 53.5534L198.637 67.2875L230.934 33.5413Z" fill="#FF5C16"/>
<path d="M209.412 104.187L194.615 115.406L209.412 119.793V104.187Z" fill="#FF5C16"/>
<path d="M216.85 79.7734H216.855H216.85V79.764L216.846 79.7687L198.641 67.2969L195.797 85.6386H209.412L216.799 92.6112L216.85 79.7734Z" fill="#FF5C16"/>
<path d="M165.588 119.793L144.066 126.174L137.519 104.187H165.588V119.793Z" fill="#E34807"/>
<path d="M179.203 85.634L183.314 112.15L177.616 97.4067L158.196 92.6113L165.583 85.634H179.198H179.203Z" fill="#E34807"/>
<path d="M209.412 119.793L230.934 126.174L237.481 104.187H209.412V119.793Z" fill="#E34807"/>
<path d="M195.797 85.634L191.686 112.15L197.384 97.4067L216.803 92.6113L209.412 85.634H195.797Z" fill="#E34807"/>
<path d="M137.519 104.177L144.066 79.7639H158.145L158.196 92.6064L177.616 97.4019L183.314 112.145L180.385 115.392L165.588 104.173H137.519V104.177Z" fill="#FF8D5D"/>
<path d="M237.481 104.177L230.934 79.7639H216.855L216.803 92.6064L197.384 97.4019L191.686 112.145L194.615 115.392L209.412 104.173H237.481V104.177Z" fill="#FF8D5D"/>
<path d="M197.304 53.5393H187.5H177.696L176.363 67.2733L183.314 112.131H191.686L198.641 67.2733L197.304 53.5393Z" fill="#FF8D5D"/>
<path d="M144.066 33.5413L137.519 59.1231L144.066 79.764H158.145L176.359 67.2875L144.066 33.5413Z" fill="#661800"/>
<path d="M175.134 90.9595H168.756L165.283 94.3473L177.621 97.3925L175.134 90.9548V90.9595Z" fill="#661800"/>
<path d="M230.934 33.5413L237.481 59.1231L230.934 79.764H216.855L198.641 67.2875L230.934 33.5413Z" fill="#661800"/>
<path d="M199.876 90.9595H206.263L209.736 94.352L197.384 97.4019L199.876 90.9548V90.9595Z" fill="#661800"/>
<path d="M193.16 120.703L194.615 115.401L191.686 112.154H183.309L180.381 115.401L181.835 120.703" fill="#661800"/>
<path d="M193.16 120.703V129.459H181.835V120.703H193.16Z" fill="#C0C4CD"/>
<path d="M165.593 119.784L181.845 129.454V120.699L180.39 115.396L165.593 119.784Z" fill="#E7EBF6"/>
<path d="M209.412 119.784L193.16 129.454V120.699L194.615 115.396L209.412 119.784Z" fill="#E7EBF6"/>
</svg>
