<svg width="102" height="68" viewBox="0 0 102 68" fill="none" xmlns="http://www.w3.org/2000/svg">
<path d="M85.5913 60.9755C84.861 60.4843 84.0555 60.1351 83.293 59.6985C82.799 59.4147 82.2728 59.1637 81.8432 58.8035C81.1129 58.1923 81.2633 56.9918 82.0258 56.4679C83.1212 55.7257 84.9362 56.1405 85.1295 57.6575C85.1295 57.6903 85.1617 57.7121 85.1939 57.7121H86.8478C86.8908 57.7121 86.923 57.6794 86.9122 57.6357C86.8263 56.5879 86.429 55.7148 85.6987 55.1582C85.0006 54.6234 84.2059 54.3396 83.3575 54.3396C78.9865 54.3396 78.5892 59.0436 80.9411 60.528C81.2096 60.7026 83.5186 61.8814 84.3348 62.3943C85.151 62.9073 85.4087 63.8459 85.0543 64.5881C84.7321 65.2648 83.8944 65.7341 83.0568 65.6795C82.1439 65.6249 81.4351 65.1229 81.1881 64.3371C81.1451 64.1952 81.1237 63.9223 81.1237 63.8023C81.1237 63.7695 81.0914 63.7368 81.0592 63.7368H79.2657C79.2335 63.7368 79.2013 63.7695 79.2013 63.8023C79.2013 65.1229 79.5235 65.8541 80.4041 66.5199C81.2311 67.1529 82.1332 67.4149 83.0675 67.4149C85.5161 67.4149 86.7834 66.0069 87.0411 64.5444C87.2666 63.1147 86.8478 61.8268 85.5913 60.9755Z" fill="#161616"/>
<path d="M7.71937 54.5796H6.92465H6.05475C6.02254 54.5796 6.00106 54.6014 5.99032 54.6232L4.51901 59.5565C4.49753 59.622 4.41162 59.622 4.39014 59.5565L2.91883 54.6232C2.90809 54.5905 2.88661 54.5796 2.85439 54.5796H1.9845H1.18978H0.115829C0.0836107 54.5796 0.0513916 54.6123 0.0513916 54.6451V67.2401C0.0513916 67.2729 0.0836107 67.3056 0.115829 67.3056H1.90932C1.94154 67.3056 1.97376 67.2729 1.97376 67.2401V57.6683C1.97376 57.5919 2.08115 57.581 2.10263 57.6465L3.58468 62.6125L3.69207 62.9617C3.70281 62.9945 3.72429 63.0054 3.75651 63.0054H5.13116C5.16338 63.0054 5.18486 62.9836 5.1956 62.9617L5.30299 62.6125L6.78504 57.6465C6.80652 57.5701 6.91391 57.5919 6.91391 57.6683V67.2401C6.91391 67.2729 6.94613 67.3056 6.97835 67.3056H8.77184C8.80406 67.3056 8.83628 67.2729 8.83628 67.2401V54.6451C8.83628 54.6123 8.80406 54.5796 8.77184 54.5796H7.71937Z" fill="#161616"/>
<path d="M58.1304 54.5796C58.0982 54.5796 58.0767 54.6014 58.066 54.6232L56.5947 59.5565C56.5732 59.622 56.4873 59.622 56.4658 59.5565L54.9945 54.6232C54.9838 54.5905 54.9623 54.5796 54.9301 54.5796H52.2023C52.17 54.5796 52.1378 54.6123 52.1378 54.6451V67.2401C52.1378 67.2729 52.17 67.3056 52.2023 67.3056H53.9958C54.028 67.3056 54.0602 67.2729 54.0602 67.2401V57.6683C54.0602 57.5919 54.1676 57.581 54.1891 57.6465L55.6711 62.6125L55.7785 62.9617C55.7892 62.9945 55.8107 63.0054 55.8429 63.0054H57.2176C57.2498 63.0054 57.2713 62.9836 57.282 62.9617L57.3894 62.6125L58.8715 57.6465C58.8929 57.5701 59.0003 57.5919 59.0003 57.6683V67.2401C59.0003 67.2729 59.0326 67.3056 59.0648 67.3056H60.8583C60.8905 67.3056 60.9227 67.2729 60.9227 67.2401V54.6451C60.9227 54.6123 60.8905 54.5796 60.8583 54.5796H58.1304Z" fill="#161616"/>
<path d="M34.9977 54.5796H31.6577H29.8642H26.5242C26.492 54.5796 26.4598 54.6123 26.4598 54.6451V56.2167C26.4598 56.2495 26.492 56.2822 26.5242 56.2822H29.7998V67.2401C29.7998 67.2729 29.832 67.3056 29.8642 67.3056H31.6577C31.6899 67.3056 31.7221 67.2729 31.7221 67.2401V56.2822H34.9977C35.0299 56.2822 35.0621 56.2495 35.0621 56.2167V54.6451C35.0621 54.6123 35.0406 54.5796 34.9977 54.5796Z" fill="#161616"/>
<path d="M45.576 67.3061H47.2084C47.2514 67.3061 47.2836 67.2624 47.2729 67.2187L43.9007 54.58C43.89 54.5473 43.8685 54.5364 43.8362 54.5364H43.2134H42.1179H41.495C41.4628 54.5364 41.4414 54.5582 41.4306 54.58L38.0584 67.2187C38.0477 67.2624 38.0799 67.3061 38.1229 67.3061H39.7553C39.7875 67.3061 39.809 67.2842 39.8197 67.2624L40.797 63.5843C40.8077 63.5516 40.8292 63.5406 40.8614 63.5406H44.4699C44.5021 63.5406 44.5236 63.5625 44.5343 63.5843L45.5116 67.2624C45.5224 67.2842 45.5546 67.3061 45.576 67.3061ZM41.291 61.7398L42.6012 56.8175C42.6227 56.752 42.7086 56.752 42.7301 56.8175L44.0403 61.7398C44.051 61.7834 44.0188 61.8271 43.9759 61.8271H41.3554C41.3125 61.8271 41.2803 61.7834 41.291 61.7398Z" fill="#161616"/>
<path d="M73.4128 67.3061H75.0452C75.0881 67.3061 75.1204 67.2624 75.1096 67.2187L71.7374 54.58C71.7267 54.5473 71.7052 54.5364 71.673 54.5364H71.0501H69.9547H69.3318C69.2996 54.5364 69.2781 54.5582 69.2673 54.58L65.8951 67.2187C65.8844 67.2624 65.9166 67.3061 65.9596 67.3061H67.592C67.6242 67.3061 67.6457 67.2842 67.6564 67.2624L68.6337 63.5843C68.6445 63.5516 68.6659 63.5406 68.6981 63.5406H72.3066C72.3388 63.5406 72.3603 63.5625 72.3711 63.5843L73.3483 67.2624C73.3591 67.2842 73.3806 67.3061 73.4128 67.3061ZM69.1277 61.7398L70.4379 56.8175C70.4594 56.752 70.5453 56.752 70.5668 56.8175L71.877 61.7398C71.8878 61.7834 71.8556 61.8271 71.8126 61.8271H69.1922C69.1492 61.8271 69.117 61.7834 69.1277 61.7398Z" fill="#161616"/>
<path d="M16.1177 65.4396V61.5323C16.1177 61.4995 16.1499 61.4668 16.1821 61.4668H20.9612C20.9934 61.4668 21.0256 61.4341 21.0256 61.4013V59.8297C21.0256 59.7969 20.9934 59.7642 20.9612 59.7642H16.1821C16.1499 59.7642 16.1177 59.7314 16.1177 59.6987V56.3589C16.1177 56.3262 16.1499 56.2934 16.1821 56.2934H21.6163C21.6485 56.2934 21.6807 56.2607 21.6807 56.228V54.6563C21.6807 54.6236 21.6485 54.5908 21.6163 54.5908H16.1177H14.2597C14.2275 54.5908 14.1953 54.6236 14.1953 54.6563V56.2934V59.7751V61.4777V65.516V67.2404C14.1953 67.2732 14.2275 67.3059 14.2597 67.3059H16.1177H21.8418C21.874 67.3059 21.9063 67.2732 21.9063 67.2404V65.5815C21.9063 65.5487 21.874 65.516 21.8418 65.516H16.1714C16.1392 65.5051 16.1177 65.4832 16.1177 65.4396Z" fill="#161616"/>
<path d="M101.98 67.1968L95.7723 60.681C95.7509 60.6591 95.7509 60.6155 95.7723 60.5937L101.357 54.7C101.4 54.6563 101.368 54.5908 101.314 54.5908H99.0264C99.0049 54.5908 98.9942 54.6017 98.9835 54.6126L94.2473 59.6114C94.2044 59.655 94.1399 59.6223 94.1399 59.5677V54.6563C94.1399 54.6236 94.1077 54.5908 94.0755 54.5908H92.282C92.2498 54.5908 92.2176 54.6236 92.2176 54.6563V67.2514C92.2176 67.2841 92.2498 67.3168 92.282 67.3168H94.0755C94.1077 67.3168 94.1399 67.2841 94.1399 67.2514V61.7069C94.1399 61.6523 94.2151 61.6196 94.2473 61.6633L99.6171 67.295C99.6278 67.3059 99.6493 67.3168 99.66 67.3168H101.948C101.99 67.3059 102.023 67.2295 101.98 67.1968Z" fill="#161616"/>
<path d="M68.9224 0.665039L53.4971 12.2943L56.3655 5.4408L68.9224 0.665039Z" fill="#E17726" stroke="#E17726" stroke-width="0.25" stroke-linecap="round" stroke-linejoin="round"/>
<path d="M33.3422 0.665039L48.6301 12.4029L45.8991 5.44079L33.3422 0.665039Z" fill="#E27625" stroke="#E27625" stroke-width="0.25" stroke-linecap="round" stroke-linejoin="round"/>
<path d="M63.3687 27.6294L59.2645 34.0177L68.0527 36.4831L70.5702 27.7689L63.3687 27.6294Z" fill="#E27625" stroke="#E27625" stroke-width="0.25" stroke-linecap="round" stroke-linejoin="round"/>
<path d="M31.7096 27.7689L34.2118 36.4831L42.9848 34.0177L38.8958 27.6294L31.7096 27.7689Z" fill="#E27625" stroke="#E27625" stroke-width="0.25" stroke-linecap="round" stroke-linejoin="round"/>
<path d="M42.5118 16.8375L40.0706 20.5899L48.7673 20.993L48.4774 11.457L42.5118 16.8375Z" fill="#E27625" stroke="#E27625" stroke-width="0.25" stroke-linecap="round" stroke-linejoin="round"/>
<path d="M59.7527 16.8374L53.6955 11.3484L53.4971 20.9929L62.1939 20.5898L59.7527 16.8374Z" fill="#E27625" stroke="#E27625" stroke-width="0.25" stroke-linecap="round" stroke-linejoin="round"/>
<path d="M42.9847 34.0181L48.2485 31.4286L43.7171 27.8313L42.9847 34.0181Z" fill="#E27625" stroke="#E27625" stroke-width="0.25" stroke-linecap="round" stroke-linejoin="round"/>
<path d="M54.0159 31.4286L59.2644 34.0181L58.5473 27.8313L54.0159 31.4286Z" fill="#E27625" stroke="#E27625" stroke-width="0.25" stroke-linecap="round" stroke-linejoin="round"/>
<path d="M59.2644 34.0182L54.0159 31.4287L54.4431 34.902L54.3973 36.375L59.2644 34.0182Z" fill="#D5BFB2" stroke="#D5BFB2" stroke-width="0.25" stroke-linecap="round" stroke-linejoin="round"/>
<path d="M42.9847 34.0182L47.8671 36.375L47.8366 34.902L48.2485 31.4287L42.9847 34.0182Z" fill="#D5BFB2" stroke="#D5BFB2" stroke-width="0.25" stroke-linecap="round" stroke-linejoin="round"/>
<path d="M47.9588 25.5365L43.5952 24.234L46.6772 22.792L47.9588 25.5365Z" fill="#233447" stroke="#233447" stroke-width="0.25" stroke-linecap="round" stroke-linejoin="round"/>
<path d="M54.3057 25.5365L55.5873 22.792L58.6846 24.234L54.3057 25.5365Z" fill="#233447" stroke="#233447" stroke-width="0.25" stroke-linecap="round" stroke-linejoin="round"/>
<path d="M42.9849 34.018L43.7477 27.6296L38.8959 27.7692L42.9849 34.018Z" fill="#CC6228" stroke="#CC6228" stroke-width="0.25" stroke-linecap="round" stroke-linejoin="round"/>
<path d="M58.5168 27.6296L59.2644 34.018L63.3686 27.7692L58.5168 27.6296Z" fill="#CC6228" stroke="#CC6228" stroke-width="0.25" stroke-linecap="round" stroke-linejoin="round"/>
<path d="M62.1938 20.5901L53.4971 20.9932L54.3058 25.5364L55.5874 22.7919L58.6846 24.2339L62.1938 20.5901Z" fill="#CC6228" stroke="#CC6228" stroke-width="0.25" stroke-linecap="round" stroke-linejoin="round"/>
<path d="M43.5951 24.2339L46.6771 22.7919L47.9587 25.5364L48.7673 20.9932L40.0706 20.5901L43.5951 24.2339Z" fill="#CC6228" stroke="#CC6228" stroke-width="0.25" stroke-linecap="round" stroke-linejoin="round"/>
<path d="M40.0708 20.5901L43.7173 27.8313L43.5953 24.2339L40.0708 20.5901Z" fill="#E27525" stroke="#E27525" stroke-width="0.25" stroke-linecap="round" stroke-linejoin="round"/>
<path d="M58.6849 24.2339L58.5475 27.8313L62.1941 20.5901L58.6849 24.2339Z" fill="#E27525" stroke="#E27525" stroke-width="0.25" stroke-linecap="round" stroke-linejoin="round"/>
<path d="M48.7676 20.9929L47.9589 25.5361L48.9812 30.9011L49.21 23.8305L48.7676 20.9929Z" fill="#E27525" stroke="#E27525" stroke-width="0.25" stroke-linecap="round" stroke-linejoin="round"/>
<path d="M53.4972 20.9929L53.07 23.815L53.2836 30.9011L54.3059 25.5361L53.4972 20.9929Z" fill="#E27525" stroke="#E27525" stroke-width="0.25" stroke-linecap="round" stroke-linejoin="round"/>
<path d="M54.3059 25.5366L53.2836 30.9016L54.016 31.4288L58.5474 27.8315L58.6847 24.2341L54.3059 25.5366Z" fill="#F5841F" stroke="#F5841F" stroke-width="0.25" stroke-linecap="round" stroke-linejoin="round"/>
<path d="M43.5952 24.2341L43.7173 27.8315L48.2487 31.4288L48.9811 30.9016L47.9588 25.5366L43.5952 24.2341Z" fill="#F5841F" stroke="#F5841F" stroke-width="0.25" stroke-linecap="round" stroke-linejoin="round"/>
<path d="M54.3973 36.3749L54.443 34.9019L54.0464 34.5608H48.218L47.8366 34.9019L47.8671 36.3749L42.9847 34.0181L44.6936 35.4446L48.157 37.879H54.0921L57.5708 35.4446L59.2644 34.0181L54.3973 36.3749Z" fill="#C0AC9D" stroke="#C0AC9D" stroke-width="0.25" stroke-linecap="round" stroke-linejoin="round"/>
<path d="M54.016 31.4286L53.2836 30.9014H48.981L48.2487 31.4286L47.8367 34.9018L48.2182 34.5607H54.0465L54.4432 34.9018L54.016 31.4286Z" fill="#161616" stroke="#161616" stroke-width="0.25" stroke-linecap="round" stroke-linejoin="round"/>
<path d="M69.5784 13.0543L70.8753 6.63498L68.9223 0.665283L54.0159 11.9069L59.7526 16.8377L67.8543 19.2411L69.6394 17.1168L68.8613 16.5431L70.0972 15.3957L69.1512 14.6514L70.3871 13.6901L69.5784 13.0543Z" fill="#763E1A" stroke="#763E1A" stroke-width="0.25" stroke-linecap="round" stroke-linejoin="round"/>
<path d="M31.3892 6.63498L32.7014 13.0543L31.8622 13.6901L33.1133 14.6514L32.1673 15.3957L33.4032 16.5431L32.6251 17.1168L34.4102 19.2411L42.5119 16.8377L48.2486 11.9069L33.3422 0.665283L31.3892 6.63498Z" fill="#763E1A" stroke="#763E1A" stroke-width="0.25" stroke-linecap="round" stroke-linejoin="round"/>
<path d="M67.8544 19.241L59.7527 16.8376L62.1939 20.59L58.5474 27.8312L63.3687 27.7692H70.5702L67.8544 19.241Z" fill="#F5841F" stroke="#F5841F" stroke-width="0.25" stroke-linecap="round" stroke-linejoin="round"/>
<path d="M42.5118 16.8376L34.4102 19.241L31.7096 27.7692H38.8958L43.7172 27.8312L40.0706 20.59L42.5118 16.8376Z" fill="#F5841F" stroke="#F5841F" stroke-width="0.25" stroke-linecap="round" stroke-linejoin="round"/>
<path d="M53.4971 20.9929L54.0159 11.9066L56.3655 5.44067H45.8989L48.2486 11.9066L48.7673 20.9929L48.9657 23.8459L48.9809 30.901H53.2835L53.2988 23.8459L53.4971 20.9929Z" fill="#F5841F" stroke="#F5841F" stroke-width="0.25" stroke-linecap="round" stroke-linejoin="round"/>
</svg>
